# File created by Blade
# Date/Time:  Thu Jan 15 17:55:17 2015
#---------------------------------------------------------
:version 1.10
:name HOM
:units
  mass 1.0
  length 1.000000
  angle deg
:documentation
     Acclaim Skeleton File
:root
   axis xyz
   order TX TY TZ RX RY RZ
   position 0.000000 0.000000 0.000000
   orientation 0 0 0
:bonedata
   begin
      id 1
      name Spine_dum
      direction 0.000000 1.000000 0.000000
      length 5.015652
      axis 0.0 0.0 0.0 xyz
   end
   begin
      id 2
      name LeftUpLeg_dum
      direction 1.000000 0.000000 0.000000
      length 4.275145
      axis 0.0 0.0 0.0 xyz
   end
   begin
      id 3
      name RightUpLeg_dum
      direction -1.000000 0.000000 0.000000
      length 4.275145
      axis 0.0 0.0 0.0 xyz
   end
   begin
      id 4
      name Spine
      direction 0.000000 1.000000 0.000000
      length 0.000000
      axis 0.0 0.0 0.0 xyz
      dof rx ry rz
   end
   begin
      id 5
      name Spine_dum1
      direction 0.000000 1.000000 0.000000
      length 15.980521
      axis 0.0 0.0 0.0 xyz
   end
   begin
      id 6
      name Spine_dum2
      direction 0.000000 1.000000 0.000000
      length 12.162712
      axis 0.0 0.0 0.0 xyz
   end
   begin
      id 7
      name Spine_dum3
      direction 0.000000 1.000000 0.000000
      length 12.162712
      axis 0.0 0.0 0.0 xyz
   end
   begin
      id 8
      name Head
      direction 0.000000 1.000000 0.000000
      length 4.527550
      axis 0.0 0.0 0.0 xyz
      dof rx ry rz
   end
   begin
      id 9
      name LeftShoulder
      direction 1.000000 0.000000 0.000000
      length 7.205867
      axis 0.0 0.0 -90.0 xyz
      dof rx ry rz
   end
   begin
      id 10
      name LeftArm
      direction 1.000000 0.000000 0.000000
      length 10.786708
      axis 0.0 0.0 -90.0 xyz
      dof rx ry rz
   end
   begin
      id 11
      name LeftForeArm
      direction 1.000000 0.000000 0.000000
      length 7.946034
      axis 0.0 0.0 -90.0 xyz
      dof rz ry rx
   end
   begin
      id 12
      name LeftHand
      direction 0.000000 0.000000 0.000000
      length 0.000000
      axis 0.0 0.0 -90.0 xyz
      dof rx ry rz
   end
   begin
      id 13
      name LeftHand_dum1
      direction 0.000000 0.000000 0.000000
      length 0.000000
      axis 0.0 0.0 -90.0 xyz
   end
   begin
      id 14
      name LeftHand_dum2
      direction 1.000000 0.000000 0.000000
      length 3.937000
      axis 0.0 0.0 -90.0 xyz
   end
   begin
      id 15
      name LeftHandThumb1
      direction 0.000000 0.000000 1.000000
      length 3.937000
      axis 0.0 0.0 -90.0 xyz
      dof rx ry rz
   end
   begin
      id 16
      name RightShoulder
      direction -1.000000 0.000000 0.000000
      length 7.205867
      axis 0.0 0.0 90.0 xyz
      dof rx ry rz
   end
   begin
      id 17
      name RightArm
      direction -1.000000 0.000000 0.000000
      length 10.786708
      axis 0.0 0.0 90.0 xyz
      dof rx ry rz
   end
   begin
      id 18
      name RightForeArm
      direction -1.000000 0.000000 0.000000
      length 7.946034
      axis 0.0 0.0 90.0 xyz
      dof rz ry rx
   end
   begin
      id 19
      name RightHand
      direction 0.000000 0.000000 0.000000
      length 0.000000
      axis 0.0 0.0 90.0 xyz
      dof rx ry rz
   end
   begin
      id 20
      name RightHand_dum1
      direction 0.000000 0.000000 0.000000
      length 0.000000
      axis 0.0 0.0 90.0 xyz
   end
   begin
      id 21
      name RightHand_dum2
      direction -1.000000 0.000000 0.000000
      length 3.937000
      axis 0.0 0.0 90.0 xyz
   end
   begin
      id 22
      name RightHandThumb1
      direction 0.000000 0.000000 1.000000
      length 3.937000
      axis 0.0 0.0 90.0 xyz
      dof rx ry rz
   end
   begin
      id 23
      name LeftUpLeg
      direction 0.000000 -1.000000 0.000000
      length 17.046659
      axis 0.0 0.0 0.0 xyz
      dof rx ry rz
   end
   begin
      id 24
      name LeftLeg
      direction 0.000000 -1.000000 0.000000
      length 17.458438
      axis 0.0 0.0 0.0 xyz
      dof rx ry rz
   end
   begin
      id 25
      name LeftFoot
      direction 0.000000 -0.258819 0.965926
      length 5.099406
      axis 15.0 0.0 0.0 xyz
      dof rx ry rz
   end
   begin
      id 26
      name LeftToeBase
      direction 0.000000 0.000000 1.000000
      length 2.952750
      axis 0.0 0.0 0.0 xyz
      dof rx ry rz
   end
   begin
      id 27
      name RightUpLeg
      direction 0.000000 -1.000000 0.000000
      length 17.046659
      axis 0.0 0.0 0.0 xyz
      dof rx ry rz
   end
   begin
      id 28
      name RightLeg
      direction 0.000000 -1.000000 0.000000
      length 17.458438
      axis 0.0 0.0 0.0 xyz
      dof rx ry rz
   end
   begin
      id 29
      name RightFoot
      direction 0.000000 -0.258819 0.965926
      length 5.099406
      axis 15.0 0.0 0.0 xyz
      dof rx ry rz
   end
   begin
      id 30
      name RightToeBase
      direction 0.000000 0.000000 1.000000
      length 2.952750
      axis 0.0 0.0 0.0 xyz
      dof rx ry rz
   end
:hierarchy
   begin
      root Spine_dum LeftUpLeg_dum RightUpLeg_dum
      Spine_dum Spine
      LeftUpLeg_dum LeftUpLeg
      RightUpLeg_dum RightUpLeg
      Spine Spine_dum1 Spine_dum2 Spine_dum3
      Spine_dum1 Head
      Spine_dum2 LeftShoulder
      Spine_dum3 RightShoulder
      LeftShoulder LeftArm
      LeftArm LeftForeArm
      LeftForeArm LeftHand
      LeftHand LeftHand_dum1 LeftHand_dum2
      LeftHand_dum1 LeftHandThumb1
      RightShoulder RightArm
      RightArm RightForeArm
      RightForeArm RightHand
      RightHand RightHand_dum1 RightHand_dum2
      RightHand_dum1 RightHandThumb1
      LeftUpLeg LeftLeg
      LeftLeg LeftFoot
      LeftFoot LeftToeBase
      RightUpLeg RightLeg
      RightLeg RightFoot
      RightFoot RightToeBase
   end

# File created by Blade
# Date/Time:  Thu Jan 15 17:55:09 2015
# Frame Rate: 120.000 fps
#------------------------------------------------------
:FULLY-SPECIFIED
:DEGREES
575
root 9.510246 36.413468 -12.914906 -9.609020 10.983384 -5.701219
Spine 16.301687 -33.843050 -9.747155
Head 1.981274 16.851444 24.218309
LeftShoulder -30.407580 -0.659465 1.725451
LeftArm 4.397610 -23.435558 -81.877726
LeftForeArm -0.000000 12.997901 2.563181
LeftHand 0.541550 -0.000000 -0.277868
LeftHandThumb1 -26.253704 33.147579 0.000000
RightShoulder -6.758415 0.346900 6.767466
RightArm -19.354929 38.425553 64.661705
RightForeArm -0.000000 -34.533038 17.985783
RightHand -4.550614 -0.000000 -3.075131
RightHandThumb1 -24.326973 -32.862282 -0.000000
LeftUpLeg 8.974894 11.856258 0.889354
LeftLeg 2.453970 -0.000000 -0.000000
LeftFoot -22.150390 10.426531 -13.620968
LeftToeBase 33.209395 -0.000000 -0.000000
RightUpLeg -85.260177 -6.194959 14.911177
RightLeg 105.203523 -0.000000 -0.000000
RightFoot 19.803809 -40.052169 -13.213493
RightToeBase 19.536973 -0.000000 -0.000000
576
root 9.495711 36.424908 -12.891454 -9.925315 11.083557 -6.005895
Spine 16.518215 -33.897415 -9.627886
Head 2.062060 16.728996 24.156043
LeftShoulder -30.124166 -0.678768 1.817411
LeftArm 4.954697 -22.523973 -82.352617
LeftForeArm -0.000000 13.212969 2.645789
LeftHand 0.871488 -0.000000 -0.228273
LeftHandThumb1 -26.253704 33.147579 0.000000
RightShoulder -6.739686 0.341260 6.733499
RightArm -19.286284 38.337095 64.634063
RightForeArm 0.000000 -34.519875 17.962741
RightHand -4.759929 -0.000000 -3.361041
RightHandThumb1 -24.326973 -32.862282 -0.000000
LeftUpLeg 9.125146 11.438192 1.142922
LeftLeg 2.649356 -0.000000 -0.000000
LeftFoot -21.999029 11.057106 -13.030314
LeftToeBase 31.943655 -0.000000 -0.000000
RightUpLeg -86.715686 -5.729499 15.079571
RightLeg 105.932503 -0.000000 -0.000000
RightFoot 19.950503 -40.055575 -13.292376
RightToeBase 19.509049 -0.000000 -0.000000
577
root 9.475642 36.434159 -12.873058 -10.178941 11.212537 -6.318773
Spine 16.661338 -33.944904 -9.467479
Head 2.117718 16.530947 24.112991
LeftShoulder -29.848764 -0.706518 1.970300
LeftArm 5.427330 -21.694810 -82.800058
LeftForeArm 0.000000 13.139402 2.830419
LeftHand 1.012717 0.000000 -0.417518
LeftHandThumb1 -26.253704 33.147579 0.000000
RightShoulder -6.718315 0.309756 6.716202
RightArm -19.160383 38.257442 64.624796
RightForeArm -0.000000 -34.662516 17.960966
RightHand -4.880937 -0.000000 -3.423324
RightHandThumb1 -24.326973 -32.862282 -0.000000
LeftUpLeg 9.196409 11.048643 1.373849
LeftLeg 2.824025 -0.000000 -0.000000
LeftFoot -21.692224 11.795619 -12.225514
LeftToeBase 30.186815 -0.000000 -0.000000
RightUpLeg -88.146671 -5.264778 15.206801
RightLeg 106.606814 -0.000000 -0.000000
RightFoot 20.169616 -40.064269 -13.550687
RightToeBase 19.625424 -0.000000 -0.000000
578
root 9.466812 36.438698 -12.843195 -10.473840 11.235662 -6.566905
Spine 16.805425 -33.894239 -9.318694
Head 2.185347 16.372800 23.999033
LeftShoulder -29.663390 -0.714219 2.078126
LeftArm 5.922546 -20.698039 -83.185256
LeftForeArm -0.000000 12.684334 2.953124
LeftHand 1.377199 -0.000000 -0.145533
LeftHandThumb1 -26.253704 33.147579 0.000000
RightShoulder -6.660393 0.233773 6.633226
RightArm -18.926418 38.138285 64.701528
RightForeArm -0.000000 -34.546457 17.857004
RightHand -4.807085 0.000000 -3.759712
RightHandThumb1 -24.326973 -32.862282 -0.000000
LeftUpLeg 9.324905 10.617100 1.520616
LeftLeg 3.061233 -0.000000 -0.000000
LeftFoot -21.466757 12.697085 -11.427449
LeftToeBase 28.504149 -0.000000 -0.000000
RightUpLeg -89.434686 -4.738637 15.225108
RightLeg 107.283185 -0.000000 -0.000000
RightFoot 20.285624 -40.159970 -13.654493
RightToeBase 19.650190 -0.000000 -0.000000
579
root 9.460121 36.440292 -12.815152 -10.749286 11.234077 -6.765441
Spine 16.911724 -33.748742 -9.182027
Head 2.251234 16.212966 23.899190
LeftShoulder -29.470422 -0.740918 2.230110
LeftArm 6.352160 -19.858475 -83.552336
LeftForeArm 0.000000 12.152684 3.148976
LeftHand 1.500414 -0.000000 -0.130248
LeftHandThumb1 -26.253704 33.147579 0.000000
RightShoulder -6.611352 0.155443 6.572866
RightArm -18.684354 38.054639 64.734102
RightForeArm -0.000000 -34.730260 17.829247
RightHand -4.840949 -0.000000 -3.688432
RightHandThumb1 -24.326973 -32.862282 -0.000000
LeftUpLeg 9.432667 10.169582 1.584483
LeftLeg 3.310280 -0.000000 -0.000000
LeftFoot -21.456579 13.634796 -10.875218
LeftToeBase 27.287822 -0.000000 -0.000000
RightUpLeg -90.653118 -4.208755 15.163575
RightLeg 107.929271 -0.000000 -0.000000
RightFoot 20.385866 -40.245206 -13.715152
RightToeBase 19.608970 -0.000000 -0.000000
